<svg width="340" height="200" viewBox="0 0 340 200" fill="none" xmlns="http://www.w3.org/2000/svg">
<g opacity="0.9">
<path opacity="0.9" d="M187.837 14.2292L166.893 49.5675L148.109 13.9164L90.0955 1.56364L139.299 95.2259L119.019 130.252L57.3486 12.04L0 0L99.5705 189.983L100.069 190.608C100.734 191.546 101.731 192.797 103.061 193.892C104.391 194.986 106.386 197.175 109.877 198.583C113.201 199.834 115.861 199.99 117.523 199.99C122.842 200.146 126.666 198.426 127.663 197.957C128.827 197.332 130.988 196.394 133.148 194.205C134.312 193.11 135.143 191.859 135.476 191.39C136.307 190.295 137.138 189.044 137.47 188.263L246.017 2.03274L187.837 14.2292Z" fill="#F7F7F7"/>
<path opacity="0.9" d="M278.93 16.731L196.814 154.957C196.149 156.052 195.151 157.615 194.653 159.492C193.822 161.994 193.489 164.183 193.323 165.59C192.991 169.968 193.822 173.252 194.653 175.128C195.983 178.725 197.811 181.226 198.808 182.634C201.136 185.292 203.629 187.012 205.291 187.95C206.787 188.888 210.943 190.765 216.429 190.765C219.088 190.765 221.083 190.295 222.413 189.826C224.74 189.045 226.236 188.263 227.4 187.637C229.228 186.543 230.558 185.448 231.555 184.51C232.22 183.728 233.55 182.477 234.88 180.601C235.212 180.132 235.379 179.663 235.545 179.506L339.604 3.9091L278.93 16.731Z" fill="#F7F7F7"/>
</g>
</svg>
